<svg overflow="hidden" width="271.59999999999997" height="194.6"><defs></defs><g><path fill="rgb(0, 0, 0)" fill-opacity="1" stroke="none" stroke-opacity="0" stroke-width="1" stroke-linecap="butt" stroke-linejoin="miter" stroke-miterlimit="4" path="M 172.2000 149.1000 L 220.5000 149.1000 A 33.6000 33.6000 0.0000 1 0 213.5000 82.6000 A 65.8000 65.8000 0.0000 0 0 83.3000 69.3000 A 43.0500 43.0500 0.0000 1 0 60.9000 149.1000 L 118.3000 149.1000 L 118.3000 121.1000 L 153.3000 156.1000 L 118.3000 191.1000 L 118.3000 163.1000 L 60.9000 163.1000 A 57.0500 57.0500 0.0000 1 1 74.9000 50.4000 A 79.8000 79.8000 0.0000 0 1 226.1000 68.2500 A 47.6000 47.6000 0.0000 0 1 220.5000 163.1000 L 172.2000 163.1000 L 172.2000 149.1000" d="M 172.2 149.1L 220.5 149.1A 33.6 33.6 0 1 0 213.5 82.6A 65.8 65.8 0 0 0 83.3 69.3A 43.05 43.05 0 1 0 60.9 149.1L 118.3 149.1L 118.3 121.1L 153.3 156.1L 118.3 191.1L 118.3 163.1L 60.9 163.1A 57.05 57.05 0 1 1 74.9 50.4A 79.8 79.8 0 0 1 226.1 68.25A 47.6 47.6 0 0 1 220.5 163.1L 172.2 163.1L 172.2 149.1" fill-rule="evenodd"></path></g></svg>