<svg overflow="hidden" width="200.5" height="205"><defs></defs><g><path fill="rgb(0, 0, 0)" fill-opacity="1" stroke="none" stroke-opacity="0" stroke-width="1" stroke-linecap="butt" stroke-linejoin="miter" stroke-miterlimit="4" path="M 192.0000 86.5000 L 164.0000 115.0000 L 136.0000 86.5000 L 157.5000 86.5000 A 71.0000 71.0000 0.0000 1 0 144.7500 127.0000 L 198.0000 180.2500 L 175.7500 202.5000 L 131.0000 158.0000 A 84.0000 84.0000 0.0000 1 1 170.5000 86.5000 L 192.0000 86.5000" d="M 192 86.5L 164 115L 136 86.5L 157.5 86.5A 71 71 0 1 0 144.75 127L 198 180.25L 175.75 202.5L 131 158A 84 84 0 1 1 170.5 86.5L 192 86.5" fill-rule="evenodd"></path><path fill="rgb(0, 0, 0)" fill-opacity="1" stroke="none" stroke-opacity="0" stroke-width="1" stroke-linecap="butt" stroke-linejoin="miter" stroke-miterlimit="4" path="M 86.5000 29.5000 A 60.0000 60.0000 0.0000 0 0 133.7500 55.5000 L 133.7500 65.5000 A 80.0000 80.0000 0.0000 0 1 111.8500 121.7500 L 86.5000 144.0000 L 61.1500 121.7500 A 80.0000 80.0000 0.0000 0 1 39.2500 65.5000 L 39.2500 55.5000 A 60.0000 60.0000 0.0000 0 0 86.5000 29.5000 M 86.5000 58.0000 A 15.5000 15.5000 0.0000 0 0 79.2500 87.2500 L 69.5000 113.0000 L 103.5000 113.0000 L 93.7500 87.2500 A 15.5000 15.5000 0.0000 0 0 86.5000 58.0000 L 86.5000 29.5000" d="M 86.5 29.5A 60 60 0 0 0 133.75 55.5L 133.75 65.5A 80 80 0 0 1 111.85 121.75L 86.5 144L 61.15 121.75A 80 80 0 0 1 39.25 65.5L 39.25 55.5A 60 60 0 0 0 86.5 29.5M 86.5 58A 15.5 15.5 0 0 0 79.25 87.25L 69.5 113L 103.5 113L 93.75 87.25A 15.5 15.5 0 0 0 86.5 58L 86.5 29.5" fill-rule="evenodd"></path></g></svg>